<svg viewBox="0 0 256 256" fill="none" xmlns="http://www.w3.org/2000/svg">
	<rect width="256" height="256" rx="40" fill="white" />
	<rect width="256" height="256" rx="40" fill="url(#paint0_linear_214_338)" />
	<path
		d="M120.604 109.984H95.0952C94.6293 106.684 93.678 103.753 92.2415 101.19C90.8049 98.589 88.9607 96.3759 86.7088 94.5511C84.4569 92.7263 81.8556 91.3286 78.9048 90.358C75.9929 89.3873 72.8286 88.902 69.4119 88.902C63.2386 88.902 57.8613 90.4356 53.2798 93.5028C48.6984 96.5312 45.1458 100.957 42.6222 106.781C40.0985 112.566 38.8366 119.594 38.8366 127.864C38.8366 136.366 40.0985 143.51 42.6222 149.295C45.1847 155.08 48.7566 159.448 53.3381 162.399C57.9195 165.35 63.2192 166.825 69.2372 166.825C72.6151 166.825 75.7405 166.379 78.6136 165.486C81.5256 164.593 84.1075 163.292 86.3594 161.584C88.6113 159.837 90.4749 157.721 91.9503 155.236C93.4645 152.751 94.5128 149.917 95.0952 146.733L120.604 146.849C119.944 152.324 118.294 157.604 115.653 162.69C113.052 167.738 109.538 172.261 105.112 176.26C100.725 180.22 95.4834 183.365 89.3878 185.695C83.331 187.985 76.4782 189.131 68.8295 189.131C58.1913 189.131 48.679 186.723 40.2926 181.909C31.9451 177.095 25.3447 170.125 20.4915 161.001C15.6771 151.877 13.2699 140.831 13.2699 127.864C13.2699 114.857 15.7159 103.792 20.608 94.6676C25.5 85.5436 32.1392 78.5937 40.5256 73.8182C48.9119 69.0038 58.3466 66.5966 68.8295 66.5966C75.7405 66.5966 82.1468 67.5672 88.0483 69.5085C93.9886 71.4498 99.2495 74.2841 103.831 78.0114C108.412 81.6998 112.14 86.223 115.013 91.581C117.925 96.9389 119.788 103.073 120.604 109.984ZM160.235 68.2273L189.063 158.847H190.17L219.056 68.2273H247.011L205.894 187.5H173.397L132.222 68.2273H160.235Z"
		fill="white"
	/>
	<defs>
		<linearGradient
			id="paint0_linear_214_338"
			x1="0"
			y1="0"
			x2="286.539"
			y2="40.6311"
			gradientUnits="userSpaceOnUse"
		>
			<stop stop-color="#2E1065" />
			<stop offset="1" stop-color="#831843" />
		</linearGradient>
	</defs>
</svg>
